<svg preserveAspectRatio="none" width="100%" height="100%" overflow="visible" style="display: block;" viewBox="0 0 73.3139 73.3139" fill="none" xmlns="http://www.w3.org/2000/svg">
<path id="Subtract" d="M47.6784 10.0495L47.3541 10.4301L47.4773 10.5351L47.6387 10.5479L47.6784 10.0495ZM62.113 11.2009L62.6114 11.1611L62.5775 10.7363L62.1528 10.7025L62.113 11.2009ZM63.2653 25.6355L62.7669 25.6752L62.7798 25.8366L62.8848 25.9597L63.2653 25.6355ZM72.6569 36.6569L73.0375 36.9812L73.3139 36.6569L73.0375 36.3326L72.6569 36.6569ZM63.2653 47.6774L62.8848 47.3531L62.7798 47.4763L62.7669 47.6377L63.2653 47.6774ZM62.113 62.113L62.1528 62.6114L62.5775 62.5775L62.6114 62.1528L62.113 62.113ZM47.6784 63.2644L47.6387 62.7659L47.4773 62.7788L47.3541 62.8838L47.6784 63.2644ZM36.6569 72.6569L36.3326 73.0375L36.6569 73.3139L36.9813 73.0375L36.6569 72.6569ZM25.6355 63.2644L25.9598 62.8838L25.8366 62.7788L25.6752 62.7659L25.6355 63.2644ZM11.2009 62.113L10.7025 62.1527L10.7364 62.5775L11.1611 62.6114L11.2009 62.113ZM10.0495 47.6774L10.5479 47.6377L10.5351 47.4763L10.4301 47.3531L10.0495 47.6774ZM0.656947 36.6569L0.276392 36.3326L2.84901e-08 36.6569L0.276407 36.9813L0.656947 36.6569ZM10.0495 25.6355L10.4301 25.9598L10.5351 25.8366L10.5479 25.6752L10.0495 25.6355ZM11.2009 11.2009L11.1611 10.7025L10.7364 10.7363L10.7025 11.1611L11.2009 11.2009ZM25.6355 10.0495L25.6752 10.5479L25.8366 10.5351L25.9598 10.4301L25.6355 10.0495ZM36.6569 0.656935L36.9813 0.27638L36.6569 -4.82785e-09L36.3326 0.27638L36.6569 0.656935ZM36.6384 51.1755L36.3755 51.6008L36.6362 51.7619L36.8981 51.6028L36.6384 51.1755ZM21.8689 42.0476L22.1317 41.6222L21.4606 42.3362L21.8689 42.0476ZM36.6384 62.9411L36.2301 63.2297L36.635 63.8025L37.0444 63.233L36.6384 62.9411ZM51.6579 42.0476L52.0639 42.3394L51.3982 41.6203L51.6579 42.0476ZM22.1189 39.4108L21.6716 39.1872L21.4677 39.5951L21.8552 39.8357L22.1189 39.4108ZM36.6374 48.4226L36.3737 48.8474L36.6374 49.011L36.9011 48.8474L36.6374 48.4226ZM51.1569 39.4108L51.4206 39.8357L51.8081 39.5952L51.6042 39.1872L51.1569 39.4108ZM36.6374 10.3728L37.0846 10.1491L36.6374 9.25472L36.1902 10.1492L36.6374 10.3728ZM47.6784 10.0495L47.6387 10.5479L62.0732 11.6993L62.113 11.2009L62.1528 10.7025L47.7182 9.5511L47.6784 10.0495ZM62.113 11.2009L61.6146 11.2407L62.7669 25.6752L63.2653 25.6355L63.7638 25.5957L62.6114 11.1611L62.113 11.2009ZM63.2653 25.6355L62.8848 25.9597L72.2764 36.9812L72.6569 36.6569L73.0375 36.3326L63.6459 25.3112L63.2653 25.6355ZM72.6569 36.6569L72.2764 36.3326L62.8848 47.3531L63.2653 47.6774L63.6459 48.0018L73.0375 36.9812L72.6569 36.6569ZM63.2653 47.6774L62.7669 47.6377L61.6146 62.0732L62.113 62.113L62.6114 62.1528L63.7638 47.7172L63.2653 47.6774ZM62.113 62.113L62.0732 61.6146L47.6387 62.7659L47.6784 63.2644L47.7182 63.7628L62.1528 62.6114L62.113 62.113ZM47.6784 63.2644L47.3541 62.8838L36.3326 72.2764L36.6569 72.6569L36.9813 73.0375L48.0027 63.6449L47.6784 63.2644ZM36.6569 72.6569L36.9813 72.2764L25.9598 62.8838L25.6355 63.2644L25.3112 63.6449L36.3326 73.0375L36.6569 72.6569ZM25.6355 63.2644L25.6752 62.7659L11.2406 61.6146L11.2009 62.113L11.1611 62.6114L25.5957 63.7628L25.6355 63.2644ZM11.2009 62.113L11.6993 62.0732L10.5479 47.6377L10.0495 47.6774L9.55111 47.7172L10.7025 62.1527L11.2009 62.113ZM10.0495 47.6774L10.4301 47.3531L1.03749 36.3326L0.656947 36.6569L0.276407 36.9813L9.66898 48.0018L10.0495 47.6774ZM0.656947 36.6569L1.0375 36.9812L10.4301 25.9598L10.0495 25.6355L9.66897 25.3111L0.276392 36.3326L0.656947 36.6569ZM10.0495 25.6355L10.5479 25.6752L11.6993 11.2406L11.2009 11.2009L10.7025 11.1611L9.55111 25.5957L10.0495 25.6355ZM11.2009 11.2009L11.2406 11.6993L25.6752 10.5479L25.6355 10.0495L25.5957 9.5511L11.1611 10.7025L11.2009 11.2009ZM25.6355 10.0495L25.9598 10.4301L36.9813 1.03749L36.6569 0.656935L36.3326 0.27638L25.3112 9.66896L25.6355 10.0495ZM36.6569 0.656935L36.3326 1.03749L47.3541 10.4301L47.6784 10.0495L48.0027 9.66896L36.9813 0.27638L36.6569 0.656935ZM36.6384 51.1755L36.9013 50.7502L22.1317 41.6222L21.8689 42.0476L21.606 42.4729L36.3755 51.6008L36.6384 51.1755ZM21.8689 42.0476L21.4606 42.3362L36.2301 63.2297L36.6384 62.9411L37.0467 62.6525L22.2772 41.7589L21.8689 42.0476ZM36.6384 62.9411L37.0444 63.233L52.0639 42.3394L51.6579 42.0476L51.2519 41.7557L36.2324 62.6493L36.6384 62.9411ZM51.6579 42.0476L51.3982 41.6203L36.3787 50.7482L36.6384 51.1755L36.8981 51.6028L51.9176 42.4748L51.6579 42.0476ZM22.1189 39.4108L21.8552 39.8357L36.3737 48.8474L36.6374 48.4226L36.9011 47.9977L22.3825 38.986L22.1189 39.4108ZM36.6374 48.4226L36.9011 48.8474L51.4206 39.8357L51.1569 39.4108L50.8933 38.986L36.3737 47.9977L36.6374 48.4226ZM51.1569 39.4108L51.6042 39.1872L37.0846 10.1491L36.6374 10.3728L36.1902 10.5964L50.7097 39.6345L51.1569 39.4108ZM36.6374 10.3728L36.1902 10.1492L21.6716 39.1872L22.1189 39.4108L22.5661 39.6344L37.0846 10.5964L36.6374 10.3728Z" fill="var(--stroke-0, white)"/>
</svg>
