<svg preserveAspectRatio="none" width="100%" height="100%" overflow="visible" style="display: block;" viewBox="0 0 72 72" fill="none" xmlns="http://www.w3.org/2000/svg">
<g id="Group 2087331785">
<path id="Subtract" d="M47.0215 9.39258L61.4561 10.5439L62.6084 24.9785L72 36L62.6084 47.0205L61.4561 61.4561L47.0215 62.6074L36 72L24.9785 62.6074L10.5439 61.4561L9.39258 47.0205L0 36L9.39258 24.9785L10.5439 10.5439L24.9785 9.39258L36 0L47.0215 9.39258ZM35.9814 50.5186L21.2119 41.3906L35.9814 62.2842L51.001 41.3906L35.9814 50.5186ZM21.4619 38.7539L35.9805 47.7656L50.5 38.7539L35.9805 9.71582L21.4619 38.7539Z" fill="url(#paint0_linear_0_15)"/>
</g>
<defs>
<linearGradient id="paint0_linear_0_15" x1="32" y1="37.5" x2="98.015" y2="39.1842" gradientUnits="userSpaceOnUse">
<stop stop-color="white"/>
<stop offset="1" stop-color="white" stop-opacity="0"/>
</linearGradient>
</defs>
</svg>
