<svg preserveAspectRatio="none" width="100%" height="100%" overflow="visible" style="display: block;" viewBox="0 0 236.878 50.5" fill="none" xmlns="http://www.w3.org/2000/svg">
<g id="Frame 2087331776">
<path id="Union" d="M205.021 0.5C209.166 0.500047 212.958 1.10421 216.396 2.3125C219.833 3.52082 222.771 5.22926 225.208 7.4375C227.666 9.62495 229.573 12.2501 230.927 15.3125C232.281 18.375 232.958 21.7501 232.958 25.4375C232.958 28.7291 232.416 31.7813 231.333 34.5938C230.271 37.3853 228.76 39.8646 226.802 42.0312L235.583 50H137.01V22.375H106.635V50H96.7285V9.84375H73.2549V50H63.3486V9.84375H10.4062V19.5938H38.4688V27.75H10.4062V41.3438H42.75V50H0.5V1.15625H106.635V13.9062H137.01V1.15625H146.947V41.3438H157.452V1.15625H167.421V41.3438H182.621C181.203 39.6444 180.033 37.749 179.114 35.6562C177.76 32.5521 177.083 29.1458 177.083 25.4375C177.083 21.75 177.76 18.375 179.114 15.3125C180.468 12.2501 182.364 9.62496 184.802 7.4375C187.26 5.22928 190.198 3.52079 193.614 2.3125C197.052 1.10427 200.854 0.5 205.021 0.5ZM205.021 9.3125C202.437 9.3125 200.041 9.67718 197.833 10.4062C195.646 11.1354 193.739 12.198 192.114 13.5938C190.51 14.9687 189.25 16.6563 188.333 18.6562C187.437 20.6562 186.989 22.9167 186.989 25.4375C186.989 27.9583 187.437 30.2292 188.333 32.25C189.25 34.2708 190.51 36 192.114 37.4375C193.739 38.854 195.646 39.948 197.833 40.7188C200.041 41.4895 202.437 41.875 205.021 41.875C207.791 41.8749 210.323 41.4374 212.614 40.5625L198.614 27.875H211.177L219.677 35.5938C220.739 34.2396 221.562 32.7187 222.146 31.0312C222.75 29.323 223.052 27.4583 223.052 25.4375C223.052 22.9167 222.593 20.6562 221.677 18.6562C220.76 16.6564 219.5 14.9687 217.896 13.5938C216.291 12.198 214.385 11.1354 212.177 10.4062C209.989 9.67713 207.604 9.31255 205.021 9.3125Z" stroke="var(--stroke-0, white)"/>
</g>
</svg>
