<svg width="77" height="16" viewBox="0 0 77 16" fill="none" xmlns="http://www.w3.org/2000/svg">
<path d="M70.1201 2.5421C71.0533 2.54211 71.9069 2.67638 72.6807 2.94488C73.4545 3.21339 74.1158 3.59306 74.6645 4.08377C75.2179 4.56986 75.6471 5.15324 75.9519 5.83377C76.2567 6.51431 76.4091 7.26434 76.4091 8.08377C76.4091 8.81523 76.2872 9.4935 76.0433 10.1185C75.8042 10.7388 75.4641 11.2898 75.0233 11.7713L77.0001 13.5421H54.8101V7.40321H47.9723V13.5421H45.7423V4.61849H40.4581V13.5421H38.2281V4.61849H26.3101V6.78515H32.6273V8.59765H26.3101V11.6185H33.5911V13.5421H24.0801V2.68793H47.9723V5.52127H54.8101V2.68793H57.0471V11.6185H59.4119V2.68793H61.656V11.6185H65.0777C64.7585 11.2409 64.4952 10.8196 64.2883 10.3546C63.9834 9.66479 63.831 8.90783 63.831 8.08377C63.831 7.26433 63.9834 6.51432 64.2883 5.83377C64.5931 5.15324 65.0199 4.56986 65.5686 4.08377C66.122 3.59306 66.7833 3.21338 67.5524 2.94488C68.3262 2.67639 69.1822 2.5421 70.1201 2.5421ZM70.1201 4.50043C69.5386 4.50044 68.9992 4.58148 68.5021 4.74349C68.0097 4.90552 67.5805 5.14167 67.2147 5.45182C66.8536 5.75736 66.5699 6.13241 66.3635 6.57682C66.1619 7.02126 66.061 7.52359 66.061 8.08377C66.061 8.64394 66.1619 9.14859 66.3635 9.59765C66.5699 10.0467 66.8536 10.431 67.2147 10.7504C67.5805 11.0652 68.0097 11.3083 68.5021 11.4796C68.9992 11.6509 69.5386 11.7365 70.1201 11.7365C70.7438 11.7365 71.3137 11.6393 71.8295 11.4449L68.678 8.62543H71.5059L73.4194 10.3407C73.6585 10.0398 73.8438 9.70179 73.9751 9.32682C74.1111 8.9472 74.1791 8.53283 74.1791 8.08377C74.1791 7.5236 74.0759 7.02126 73.8696 6.57682C73.6633 6.13241 73.3795 5.75736 73.0184 5.45182C72.6573 5.14167 72.2281 4.90552 71.731 4.74349C71.2386 4.58147 70.7016 4.50044 70.1201 4.50043Z" fill="white"/>
<path d="M10.585 2.08691L13.834 2.34277L14.0938 5.55078L16.208 8L14.0938 10.4492L13.834 13.6572L10.585 13.9131L8.10451 16L5.62306 13.9131L2.37403 13.6572L2.11426 10.4492L0 8L2.11426 5.55078L2.37403 2.34277L5.62306 2.08691L8.10451 0L10.585 2.08691ZM8.09963 11.2266L4.7754 9.19824L8.09963 13.8408L11.4815 9.19824L8.09963 11.2266ZM4.83204 8.6123L8.1006 10.6143L11.3682 8.6123L8.1006 2.15918L4.83204 8.6123Z" fill="white"/>
</svg>
