<svg preserveAspectRatio="none" width="100%" height="100%" overflow="visible" style="display: block;" viewBox="0 0 16 11" fill="none" xmlns="http://www.w3.org/2000/svg">
<path id="Vector" d="M13.538 0.914167C12.5247 0.488029 11.4275 0.178735 10.2846 3.16155e-05C10.2746 -0.000257474 10.2646 0.00143889 10.2554 0.00500146C10.2462 0.00856403 10.2379 0.0139063 10.2313 0.0206514C10.0941 0.247467 9.93411 0.543014 9.82744 0.76983C8.61522 0.604873 7.38242 0.604873 6.1702 0.76983C6.06353 0.536141 5.90353 0.247467 5.75876 0.0206514C5.75114 0.00690496 5.72828 3.16155e-05 5.70542 3.16155e-05C4.56254 0.178735 3.47298 0.488029 2.452 0.914167C2.44438 0.914167 2.43676 0.92104 2.42914 0.927914C0.356706 3.72531 -0.214738 6.44709 0.0671745 9.14139C0.0671745 9.15513 0.0747937 9.16888 0.0900322 9.17575C1.4615 10.083 2.77963 10.6329 4.08252 10.9972C4.10538 11.004 4.12824 10.9972 4.13586 10.9834C4.44063 10.6054 4.71492 10.2067 4.95112 9.78747C4.96636 9.75998 4.95112 9.73248 4.92064 9.72561C4.48634 9.5744 4.0749 9.3957 3.67108 9.1895C3.64061 9.17575 3.64061 9.13452 3.66346 9.1139C3.74728 9.05891 3.83109 8.99705 3.9149 8.94207C3.93014 8.92832 3.953 8.92832 3.96823 8.93519C6.58926 10.0143 9.416 10.0143 12.0065 8.93519C12.0218 8.92832 12.0446 8.92832 12.0599 8.94207C12.1437 9.00392 12.2275 9.05891 12.3113 9.12077C12.3418 9.14139 12.3418 9.18263 12.3037 9.19637C11.9075 9.40944 11.4884 9.58127 11.0541 9.73248C11.0237 9.73936 11.016 9.77372 11.0237 9.79434C11.2675 10.2136 11.5418 10.6123 11.8389 10.9903C11.8618 10.9972 11.8846 11.004 11.9075 10.9972C13.218 10.6329 14.5361 10.083 15.9076 9.17575C15.9228 9.16888 15.9305 9.15513 15.9305 9.14139C16.2657 6.02783 15.3743 3.32666 13.5685 0.927914C13.5609 0.92104 13.5533 0.914167 13.538 0.914167V0.914167ZM5.34732 7.49869C4.56254 7.49869 3.90728 6.84574 3.90728 6.04157C3.90728 5.23741 4.5473 4.58446 5.34732 4.58446C6.15496 4.58446 6.79498 5.24428 6.78736 6.04157C6.78736 6.84574 6.14734 7.49869 5.34732 7.49869ZM10.6579 7.49869C9.87316 7.49869 9.2179 6.84574 9.2179 6.04157C9.2179 5.23741 9.85792 4.58446 10.6579 4.58446C11.4656 4.58446 12.1056 5.24428 12.098 6.04157C12.098 6.84574 11.4656 7.49869 10.6579 7.49869Z" fill="var(--fill-0, #BBBBBB)"/>
</svg>
