<svg preserveAspectRatio="none" width="100%" height="100%" overflow="visible" style="display: block;" viewBox="0 0 39 39" fill="none" xmlns="http://www.w3.org/2000/svg">
<g id="Frame 2087332275">
<path id="Vector" d="M31.6747 7.12541C31.6747 7.12541 34.6455 5.93379 34.397 8.82751C34.3152 10.0191 33.5727 14.1902 32.9945 18.7011L31.014 32.0646C31.014 32.0646 30.8488 34.0223 29.363 34.3629C27.878 34.7027 25.6497 33.1713 25.2367 32.8307C24.9064 32.5751 19.0473 28.7446 16.9841 26.8726C16.406 26.3613 15.7453 25.3404 17.0667 24.1487L25.7315 15.6367C26.7218 14.6157 27.712 12.2325 23.5857 15.1262L12.0312 23.212C12.0312 23.212 10.7106 24.0638 8.23526 23.2977L2.87016 21.5948C2.87016 21.5948 0.889598 20.3182 4.27337 19.0417C12.5267 15.0413 22.678 10.9559 31.6732 7.12541H31.6747Z" fill="var(--fill-0, #BBBBBB)"/>
</g>
</svg>
