<svg preserveAspectRatio="none" width="100%" height="100%" overflow="visible" style="display: block;" viewBox="0 0 36.7059 39" fill="none" xmlns="http://www.w3.org/2000/svg">
<g id="Frame 2087332272" clip-path="url(#clip0_0_23)">
<path id="Vector" d="M31.0577 11.2737C28.733 10.2961 26.2159 9.58651 23.594 9.17654C23.571 9.17588 23.5481 9.17977 23.527 9.18794C23.5059 9.19612 23.487 9.20837 23.4716 9.22385C23.157 9.74419 22.7899 10.4222 22.5452 10.9426C19.7643 10.5641 16.9361 10.5641 14.1551 10.9426C13.9104 10.4064 13.5433 9.74419 13.2112 9.22385C13.1937 9.19231 13.1413 9.17654 13.0888 9.17654C10.4669 9.58651 7.96736 10.2961 5.62511 11.2737C5.60763 11.2737 5.59015 11.2894 5.57267 11.3052C0.818254 17.7228 -0.492706 23.9669 0.154034 30.1479C0.154034 30.1794 0.171514 30.211 0.206473 30.2267C3.35278 32.3081 6.37673 33.5695 9.36572 34.4052C9.41815 34.421 9.47059 34.4052 9.48807 34.3737C10.1873 33.5065 10.8165 32.5919 11.3584 31.6301C11.3933 31.567 11.3584 31.5039 11.2885 31.4882C10.2921 31.1413 9.34824 30.7313 8.42182 30.2583C8.35191 30.2267 8.35191 30.1321 8.40434 30.0848C8.59662 29.9587 8.78889 29.8168 8.98117 29.6906C9.01613 29.6591 9.06856 29.6591 9.10352 29.6749C15.1165 32.1504 21.6013 32.1504 27.5444 29.6749C27.5793 29.6591 27.6318 29.6591 27.6667 29.6906C27.859 29.8325 28.0513 29.9587 28.2435 30.1006C28.3135 30.1479 28.3135 30.2425 28.2261 30.274C27.3171 30.7628 26.3558 31.157 25.3594 31.5039C25.2895 31.5197 25.272 31.5985 25.2895 31.6458C25.8489 32.6077 26.4781 33.5222 27.1598 34.3895C27.2123 34.4052 27.2647 34.421 27.3171 34.4052C30.3236 33.5695 33.3475 32.3081 36.4939 30.2267C36.5288 30.211 36.5463 30.1794 36.5463 30.1479C37.3154 23.005 35.2703 16.8082 31.1277 11.3052C31.1102 11.2894 31.0927 11.2737 31.0577 11.2737V11.2737ZM12.2673 26.3794C10.4669 26.3794 8.96369 24.8814 8.96369 23.0366C8.96369 21.1917 10.432 19.6938 12.2673 19.6938C14.1201 19.6938 15.5884 21.2075 15.5709 23.0366C15.5709 24.8814 14.1027 26.3794 12.2673 26.3794ZM24.4505 26.3794C22.6501 26.3794 21.1469 24.8814 21.1469 23.0366C21.1469 21.1917 22.6152 19.6938 24.4505 19.6938C26.3033 19.6938 27.7716 21.2075 27.7541 23.0366C27.7541 24.8814 26.3033 26.3794 24.4505 26.3794Z" fill="var(--fill-0, #BBBBBB)"/>
</g>
<defs>
<clipPath id="clip0_0_23">
<rect width="36.7059" height="39" fill="white"/>
</clipPath>
</defs>
</svg>
