<svg preserveAspectRatio="none" width="100%" height="100%" overflow="visible" style="display: block;" viewBox="0 0 42 42" fill="none" xmlns="http://www.w3.org/2000/svg">
<g id="Icon">
<path id="Union" d="M20.7783 40.4971C20.8521 40.4979 20.926 40.5 21 40.5C21.3211 40.5 21.6408 40.4919 21.958 40.4766L21.9814 40.9766L22.0059 41.4756C21.6726 41.4917 21.3372 41.5 21 41.5C20.6628 41.5 20.3274 41.4917 19.9941 41.4756L20.0088 41.1572L19.625 40.5293L20.0518 40.2686L20.4775 40.0068L20.7783 40.4971ZM16.2598 39.9199C16.8743 40.0734 17.5005 40.1974 18.1367 40.291L18.0645 40.7861L17.9912 41.2803C17.3224 41.1819 16.6638 41.052 16.0176 40.8906L16.2598 39.9199ZM25.9824 40.8906C25.3362 41.052 24.6776 41.1819 24.0088 41.2803L23.9355 40.7861L23.8633 40.291C24.4995 40.1974 25.1257 40.0734 25.7402 39.9199L25.9824 40.8906ZM12.6611 38.6318C13.2355 38.904 13.8252 39.1493 14.4287 39.3652L14.2598 39.8359L14.0918 40.3066C13.4571 40.0795 12.8364 39.8223 12.2324 39.5361L12.4473 39.084L12.6611 38.6318ZM29.5527 39.084L29.7676 39.5361C29.1636 39.8223 28.5429 40.0795 27.9082 40.3066L27.7402 39.8359L27.5713 39.3652C28.1748 39.1493 28.7645 38.904 29.3389 38.6318L29.5527 39.084ZM19.5811 38.5439L19.1543 38.8047L18.7285 39.0664L17.832 37.6035L18.2578 37.3418L18.6846 37.0801L19.5811 38.5439ZM9.38379 36.6641C9.89511 37.0439 10.4256 37.3993 10.9736 37.7285L10.7168 38.1572L10.459 38.5859C9.8827 38.2398 9.32469 37.8661 8.78711 37.4668L9.08594 37.0654L9.38379 36.6641ZM32.9141 37.0654L33.2129 37.4668C32.6753 37.8661 32.1173 38.2398 31.541 38.5859L31.2832 38.1572L31.0264 37.7285C31.5744 37.3993 32.1049 37.0439 32.6162 36.6641L32.9141 37.0654ZM6.55078 34.0957C6.97963 34.5686 7.43141 35.0204 7.9043 35.4492L7.56836 35.8193L7.2334 36.1895C6.73639 35.7387 6.26127 35.2636 5.81055 34.7666L6.18066 34.4316L6.55078 34.0957ZM35.8193 34.4316L36.1895 34.7666C35.7387 35.2636 35.2636 35.7387 34.7666 36.1895L34.4316 35.8193L34.0957 35.4492C34.5686 35.0204 35.0204 34.5686 35.4492 34.0957L35.8193 34.4316ZM16.8486 33.9863C16.9948 34.2905 17.1582 34.591 17.3389 34.8857L17.7871 35.6172L17.3613 35.8789L16.9346 36.1396L16.4863 35.4082C16.2879 35.0845 16.1081 34.7547 15.9473 34.4199L16.3984 34.2031L16.8486 33.9863ZM4.27148 31.0264C4.60067 31.5744 4.95611 32.1049 5.33594 32.6162L4.93457 32.9141L4.5332 33.2129C4.13386 32.6753 3.76021 32.1173 3.41406 31.541L3.84277 31.2832L4.27148 31.0264ZM38.1572 31.2832L38.5859 31.541C38.2398 32.1173 37.8661 32.6753 37.4668 33.2129L37.0654 32.9141L36.6641 32.6162C37.0439 32.1049 37.3993 31.5744 37.7285 31.0264L38.1572 31.2832ZM15.8848 30.04C15.9057 30.7159 15.9967 31.3943 16.1602 32.0635L15.6748 32.1826L15.1885 32.3008C15.0083 31.5631 14.9088 30.8159 14.8857 30.0713L15.3857 30.0557L15.8848 30.04ZM2.63477 27.5713C2.85072 28.1748 3.09604 28.7645 3.36816 29.3389L2.91602 29.5527L2.46387 29.7676C2.17772 29.1636 1.92048 28.5429 1.69336 27.9082L2.16406 27.7402L2.63477 27.5713ZM39.8359 27.7402L40.3066 27.9082C40.0795 28.5429 39.8223 29.1636 39.5361 29.7676L39.084 29.5527L38.6318 29.3389C38.904 28.7645 39.1493 28.1748 39.3652 27.5713L39.8359 27.7402ZM16.1318 25.8516L16.5957 26.0381C16.3415 26.6719 16.1526 27.3306 16.0332 28.0029L15.541 27.915L15.0488 27.8281C15.1802 27.0884 15.3873 26.3633 15.667 25.666L16.1318 25.8516ZM1.70898 23.8633C1.80258 24.4995 1.92662 25.1257 2.08008 25.7402L1.10938 25.9824C0.947998 25.3362 0.818121 24.6776 0.719727 24.0088L1.21387 23.9355L1.70898 23.8633ZM40.7861 23.9355L41.2803 24.0088C41.1819 24.6776 41.052 25.3362 40.8906 25.9824L39.9199 25.7402C40.0734 25.1257 40.1974 24.4995 40.291 23.8633L40.7861 23.9355ZM18.502 22.3008L18.8506 22.6582C18.3578 23.1397 17.9222 23.6678 17.5469 24.2305L17.1318 23.9531L16.7158 23.6758C17.1292 23.0559 17.6091 22.4742 18.1523 21.9434L18.502 22.3008ZM1.02344 20.0186L1.52344 20.042C1.5081 20.3592 1.5 20.6789 1.5 21C1.5 21.3211 1.5081 21.6408 1.52344 21.958L1.02344 21.9814L0.524414 22.0059C0.508304 21.6726 0.5 21.3372 0.5 21C0.5 20.6628 0.508304 20.3274 0.524414 19.9941L1.02344 20.0186ZM41.4756 19.9941C41.4917 20.3274 41.5 20.6628 41.5 21C41.5 21.3372 41.4917 21.6726 41.4756 22.0059L40.9766 21.9814L40.4766 21.958C40.4919 21.6408 40.5 21.3211 40.5 21C40.5 20.6789 40.4919 20.3592 40.4766 20.042L40.9766 20.0186L41.4756 19.9941ZM22.2422 20.3848C21.954 20.5637 21.6545 20.7313 21.3438 20.8867C21.0345 21.0413 20.737 21.2097 20.4521 21.3906L20.1846 20.9688L19.916 20.5469C20.2295 20.3478 20.5569 20.163 20.8965 19.9932C21.1799 19.8514 21.4527 19.6979 21.7148 19.5352L22.2422 20.3848ZM24.8477 17.3096L25.25 17.6055C24.8482 18.153 24.3905 18.6683 23.8789 19.1406L23.54 18.7725L23.2012 18.4053C23.665 17.9771 24.0801 17.511 24.4443 17.0146L24.8477 17.3096ZM2.08008 16.2598C1.92662 16.8743 1.80258 17.5005 1.70898 18.1367L1.21387 18.0645L0.719727 17.9912C0.818121 17.3224 0.947998 16.6638 1.10938 16.0176L2.08008 16.2598ZM40.8906 16.0176C41.052 16.6638 41.1819 17.3224 41.2803 17.9912L40.7861 18.0645L40.291 18.1367C40.1974 17.5005 40.0734 16.8743 39.9199 16.2598L40.8906 16.0176ZM26.5215 13.7803L27.0049 13.9062C26.8327 14.5687 26.5986 15.2163 26.3037 15.8389L25.3994 15.4111C25.6672 14.8457 25.8805 14.2567 26.0371 13.6543L26.5215 13.7803ZM2.91602 12.4473L3.36816 12.6611C3.09604 13.2355 2.85072 13.8252 2.63477 14.4287L2.16406 14.2598L1.69336 14.0918C1.92048 13.4571 2.17772 12.8364 2.46387 12.2324L2.91602 12.4473ZM39.5361 12.2324C39.8223 12.8364 40.0795 13.4571 40.3066 14.0918L39.8359 14.2598L39.3652 14.4287C39.1493 13.8252 38.904 13.2355 38.6318 12.6611L39.084 12.4473L39.5361 12.2324ZM27.2803 9.82129C27.3632 10.5052 27.3801 11.194 27.334 11.877L26.835 11.8438L26.3369 11.8096C26.3788 11.1887 26.3624 10.5633 26.2871 9.94238L26.7832 9.88184L27.2803 9.82129ZM4.93457 9.08594L5.33594 9.38379C4.95611 9.89511 4.60067 10.4256 4.27148 10.9736L3.84277 10.7168L3.41406 10.459C3.76021 9.8827 4.13386 9.32469 4.5332 8.78711L4.93457 9.08594ZM37.4668 8.78711C37.8661 9.32469 38.2398 9.8827 38.5859 10.459L38.1572 10.7168L37.7285 10.9736C37.3993 10.4256 37.0439 9.89511 36.6641 9.38379L37.0654 9.08594L37.4668 8.78711ZM26.0244 5.92285C26.3604 6.53273 26.6318 7.166 26.8398 7.8125L26.3633 7.96582L25.8877 8.11816C25.6991 7.53207 25.453 6.95814 25.1484 6.40527L25.5859 6.16406L26.0244 5.92285ZM7.56836 6.18066L7.9043 6.55078C7.43141 6.97963 6.97963 7.43141 6.55078 7.9043L6.18066 7.56836L5.81055 7.2334C6.26127 6.73639 6.73639 6.26127 7.2334 5.81055L7.56836 6.18066ZM34.7666 5.81055C35.2636 6.26127 35.7387 6.73639 36.1895 7.2334L35.8193 7.56836L35.4492 7.9043C35.0204 7.43141 34.5686 6.97963 34.0957 6.55078L34.4316 6.18066L34.7666 5.81055ZM10.7168 3.84277L10.9736 4.27148C10.4256 4.60067 9.89511 4.95611 9.38379 5.33594L9.08594 4.93457L8.78711 4.5332C9.32469 4.13386 9.8827 3.76021 10.459 3.41406L10.7168 3.84277ZM31.541 3.41406C32.1173 3.76021 32.6753 4.13386 33.2129 4.5332L32.9141 4.93457L32.6162 5.33594C32.1049 4.95611 31.5744 4.60067 31.0264 4.27148L31.2832 3.84277L31.541 3.41406ZM24.1709 3.46387C24.4167 3.70963 24.6484 3.96365 24.8652 4.22461L24.0957 4.86328C23.8986 4.62608 23.6879 4.39489 23.4639 4.1709L22.7598 3.4668L23.4668 2.75977L24.1709 3.46387ZM14.2598 2.16406L14.4287 2.63477C13.8252 2.85072 13.2355 3.09604 12.6611 3.36816L12.4473 2.91602L12.2324 2.46387C12.8364 2.17772 13.4571 1.92048 14.0918 1.69336L14.2598 2.16406ZM27.9082 1.69336C28.5429 1.92048 29.1636 2.17772 29.7676 2.46387L29.5527 2.91602L29.3389 3.36816C28.7645 3.09604 28.1748 2.85072 27.5713 2.63477L27.7402 2.16406L27.9082 1.69336ZM18.0645 1.21387L18.1367 1.70898C17.5005 1.80258 16.8743 1.92662 16.2598 2.08008L16.0176 1.10938C16.6638 0.947998 17.3224 0.818121 17.9912 0.719727L18.0645 1.21387ZM24.0088 0.719727C24.6776 0.818121 25.3362 0.947998 25.9824 1.10938L25.7402 2.08008C25.1257 1.92662 24.4995 1.80258 23.8633 1.70898L23.9355 1.21387L24.0088 0.719727ZM21 0.5C21.3372 0.5 21.6726 0.508304 22.0059 0.524414L21.9814 1.02344L21.9697 1.2627L22.0576 1.35059L21.9609 1.44629L21.958 1.52344C21.9343 1.52229 21.9105 1.52157 21.8867 1.52051L21.3506 2.05762L20.7949 1.50195C20.5428 1.50464 20.2916 1.51137 20.042 1.52344L20.0186 1.02344L19.9941 0.524414C20.3274 0.508304 20.6628 0.5 21 0.5Z" fill="url(#paint0_linear_0_46)"/>
</g>
<defs>
<linearGradient id="paint0_linear_0_46" x1="41.5" y1="21" x2="0.5" y2="21" gradientUnits="userSpaceOnUse">
<stop stop-color="white"/>
<stop offset="0.899038" stop-color="#999999" stop-opacity="0.2"/>
</linearGradient>
</defs>
</svg>
