<svg preserveAspectRatio="none" width="100%" height="100%" overflow="visible" style="display: block;" viewBox="0 0 14 12" fill="none" xmlns="http://www.w3.org/2000/svg">
<path id="Vector" d="M12.8069 0.105948C12.8069 0.105948 14.1019 -0.413478 13.9936 0.847888C13.9579 1.36731 13.6342 3.18548 13.3822 5.15176L12.5189 10.9769C12.5189 10.9769 12.4469 11.8302 11.7993 11.9787C11.1519 12.1268 10.1806 11.4593 10.0006 11.3108C9.85662 11.1994 7.30266 9.52968 6.40334 8.71368C6.15134 8.49083 5.86335 8.0458 6.43934 7.52637L10.2163 3.81599C10.6479 3.37096 11.0796 2.33211 9.28096 3.59348L4.24437 7.11803C4.24437 7.11803 3.66871 7.48935 2.58973 7.1554L0.251094 6.41312C0.251094 6.41312 -0.612227 5.85667 0.862752 5.30021C4.46037 3.55645 8.8853 1.77566 12.8062 0.105948H12.8069Z" fill="var(--fill-0, #BBBBBB)"/>
</svg>
